<?xml version="1.0" encoding="UTF-8" standalone="no"?>
<svg
   xmlns:dc="http://purl.org/dc/elements/1.1/"
   xmlns:cc="http://creativecommons.org/ns#"
   xmlns:rdf="http://www.w3.org/1999/02/22-rdf-syntax-ns#"
   xmlns:svg="http://www.w3.org/2000/svg"
   xmlns="http://www.w3.org/2000/svg"
   xmlns:sodipodi="http://sodipodi.sourceforge.net/DTD/sodipodi-0.dtd"
   xmlns:inkscape="http://www.inkscape.org/namespaces/inkscape"
   version="1.0"
   id="Layer_1"
   x="0px"
   y="0px"
   width="26.028px"
   height="26px"
   viewBox="0 0 26.028 26"
   style="enable-background:new 0 0 26.028 26;"
   xml:space="preserve"
   inkscape:version="0.48.4 r9939"
   sodipodi:docname="coming_soon_alert.svg"><metadata
   id="metadata15"><rdf:RDF><cc:Work
       rdf:about=""><dc:format>image/svg+xml</dc:format><dc:type
         rdf:resource="http://purl.org/dc/dcmitype/StillImage" /></cc:Work></rdf:RDF></metadata><defs
   id="defs13" /><sodipodi:namedview
   pagecolor="#ffffff"
   bordercolor="#666666"
   borderopacity="1"
   objecttolerance="10"
   gridtolerance="10"
   guidetolerance="10"
   inkscape:pageopacity="0"
   inkscape:pageshadow="2"
   inkscape:window-width="948"
   inkscape:window-height="779"
   id="namedview11"
   showgrid="false"
   inkscape:zoom="9.0769231"
   inkscape:cx="13.014"
   inkscape:cy="13"
   inkscape:window-x="0"
   inkscape:window-y="0"
   inkscape:window-maximized="0"
   inkscape:current-layer="Layer_1" />
<g
   id="g3"
   style="fill:#999999">
	<path
   d="M5.5,10.5c0.3,0.3,0.6,0.2,0.7,0.1l1.617-1.437C7.879,9.173,7.935,9.2,8,9.2c0.663,0,1.2-0.537,1.2-1.2   c0-0.368-0.175-0.686-0.436-0.906L8.5,3.4C8.5,3.2,8.3,3,8,3C7.6,3,7.5,3.2,7.5,3.4L7.327,7.033C7.016,7.25,6.8,7.592,6.8,8   c0,0.045,0.021,0.083,0.026,0.127L5.4,9.8C5.3,9.9,5.2,10.2,5.5,10.5z"
   id="path5"
   style="fill:#999999" />
	<path
   d="M25.6,23L17.3,9.3c-1-1.7-2.7-1.7-3.7,0L5.4,23c-1,1.7-0.2,3,1.8,3h16.5C25.8,26,26.6,24.6,25.6,23z M14.4,13.1   c0.3-0.3,0.7-0.5,1.1-0.5c0.5,0,0.8,0.2,1.1,0.5c0.3,0.3,0.4,0.7,0.4,1.1c0,0.4-0.6,3.3-0.8,5.4h-1.5c-0.2-2.1-0.8-5-0.8-5.4   S14.1,13.4,14.4,13.1z M16.6,23.1c-0.3,0.3-0.7,0.4-1.1,0.4s-0.8-0.1-1.1-0.4s-0.5-0.6-0.5-1.1c0-0.4,0.2-0.8,0.5-1.1   s0.7-0.4,1.1-0.4c0.4,0,0.8,0.1,1.1,0.4c0.3,0.3,0.5,0.7,0.5,1.1C17.1,22.5,16.9,22.8,16.6,23.1z"
   id="path7"
   style="fill:#999999" />
	<path
   d="M8.5,16l1.4-2.3C9.2,13.9,8.6,14,8,14c-3.3,0-6-2.7-6-6s2.7-6,6-6c3.1,0,5.7,2.4,6,5.5C14.4,7.2,15,7,15.5,7   c0.1,0,0.3,0,0.4,0C15.4,3,12,0,8,0C3.6,0,0,3.6,0,8s3.6,8,8,8C8.2,16,8.3,16,8.5,16z"
   id="path9"
   style="fill:#999999" />
</g>
</svg>